<svg xmlns="http://www.w3.org/2000/svg" width="1200" height="600" viewBox="0 0 1200 600"><rect width="1200" height="600" fill="#e9e2dc"/><g opacity=".35"><rect x="720" y="60" width="360" height="420" fill="#8b5e3c"/><g fill="#3d2b1f"><rect x="750" y="95" width="40" height="150"/><rect x="802" y="90" width="35" height="155"/><rect x="850" y="80" width="50" height="165"/><rect x="915" y="100" width="36" height="145"/><rect x="965" y="70" width="48" height="175"/><rect x="750" y="275" width="40" height="160"/><rect x="802" y="290" width="35" height="145"/><rect x="850" y="270" width="50" height="165"/><rect x="915" y="300" width="36" height="135"/><rect x="965" y="265" width="48" height="170"/></g><rect x="0" y="450" width="1200" height="150" fill="#d8c7b3"/><rect x="270" y="330" width="390" height="115" fill="#fff" opacity=".6"/><rect x="320" y="300" width="240" height="40" fill="#fff" opacity=".8"/></g></svg>